# ProBuilder 4.0.5
# https://unity3d.com/unity/features/worldbuilding/probuilder
# 4/17/2020 5:44:49 PM

mtllib ./Plate2.mtl
o Plate2

g Cylinder
v -37.23627 -4.768372E-07 70.95594
v -37.23627 0.01999952 70.95594
v -37.2118 -4.768372E-07 71.11045
v -37.2118 0.01999952 71.11045
v -37.14077 -4.768372E-07 71.24983
v -37.14077 0.01999952 71.24983
v -37.03016 -4.768372E-07 71.36045
v -37.03016 0.01999952 71.36045
v -36.89077 -4.768372E-07 71.43147
v -36.89077 0.01999952 71.43147
v -36.73627 -4.768372E-07 71.45594
v -36.73627 0.01999952 71.45594
v -36.58176 -4.768372E-07 71.43147
v -36.58176 0.01999952 71.43147
v -36.44238 -4.768372E-07 71.36045
v -36.44238 0.01999952 71.36045
v -36.33176 -4.768372E-07 71.24983
v -36.33176 0.01999952 71.24983
v -36.26074 -4.768372E-07 71.11045
v -36.26074 0.01999952 71.11045
v -36.23627 -4.768372E-07 70.95594
v -36.23627 0.01999952 70.95594
v -36.26074 -4.768372E-07 70.80143
v -36.26074 0.01999952 70.80143
v -36.33176 -4.768372E-07 70.66205
v -36.33176 0.01999952 70.66205
v -36.44238 -4.768372E-07 70.55143
v -36.44238 0.01999952 70.55143
v -36.58176 -4.768372E-07 70.48042
v -36.58176 0.01999952 70.48042
v -36.73627 -4.768372E-07 70.45594
v -36.73627 0.01999952 70.45594
v -36.89077 -4.768372E-07 70.48042
v -36.89077 0.01999952 70.48042
v -37.03016 -4.768372E-07 70.55143
v -37.03016 0.01999952 70.55143
v -37.14077 -4.768372E-07 70.66205
v -37.14077 0.01999952 70.66205
v -37.2118 -4.768372E-07 70.80143
v -37.2118 0.01999952 70.80143
v -36.73627 -4.768372E-07 70.95594
v -37.20377 0.0130838 70.9459
v -36.76877 0.0130838 70.9459
v -37.18248 0.0130838 71.08032
v -37.12069 0.0130838 71.20158
v -37.02445 0.0130838 71.29782
v -36.90319 0.0130838 71.3596
v -36.76877 0.0130838 71.3809
v -36.63435 0.0130838 71.3596
v -36.51308 0.0130838 71.29782
v -36.41685 0.0130838 71.20158
v -36.35506 0.0130838 71.08032
v -36.33377 0.0130838 70.9459
v -36.35506 0.0130838 70.81147
v -36.41685 0.0130838 70.69021
v -36.51308 0.0130838 70.59397
v -36.63435 0.0130838 70.53219
v -36.76877 0.0130838 70.51089
v -36.90319 0.0130838 70.53219
v -37.02445 0.0130838 70.59397
v -37.12069 0.0130838 70.69021
v -37.18248 0.0130838 70.81147
v -37.12069 0.02167368 70.69021
v -37.02445 0.02167368 70.59397
v -37.18248 0.02167368 70.81147
v -36.90319 0.02167368 70.53219
v -36.76877 0.02167368 70.51089
v -36.63435 0.02167368 70.53219
v -36.51308 0.02167368 70.59397
v -36.41685 0.02167368 70.69021
v -36.35506 0.02167368 70.81147
v -36.33377 0.02167368 70.9459
v -36.35506 0.02167368 71.08032
v -36.41685 0.02167368 71.20158
v -36.51308 0.02167368 71.29782
v -36.63435 0.02167368 71.3596
v -36.76877 0.02167368 71.3809
v -36.90319 0.02167368 71.3596
v -37.02445 0.02167368 71.29782
v -37.12069 0.02167368 71.20158
v -37.18248 0.02167368 71.08032
v -37.20377 0.02167368 70.9459

vt 0 0
vt 0 0.02
vt 0.1564345 0
vt 0.1564345 0.02
vt 0.148778 0
vt 0.148778 0.02
vt 0.3052125 0
vt 0.3052125 0.02
vt 0.2753361 0
vt 0.2753361 0.02
vt 0.4317706 0
vt 0.4317706 0.02
vt 0.367286 0
vt 0.367286 0.02
vt 0.5237205 0
vt 0.5237205 0.02
vt 0.4156269 0
vt 0.4156269 0.02
vt 0.5720614 0
vt 0.5720614 0.02
vt -0.1564346 0
vt -0.1564346 0.02
vt -0.3052123 0
vt -0.3052123 0.02
vt -0.1487779 0
vt -0.1487779 0.02
vt -0.4317705 0
vt -0.4317705 0.02
vt -0.2753361 0
vt -0.2753361 0.02
vt -0.5237206 0
vt -0.5237206 0.02
vt -0.367286 0
vt -0.367286 0.02
vt -0.5720614 0
vt -0.5720614 0.02
vt -0.4156269 0
vt -0.4156269 0.02
vt 0.5 0
vt 0.02447173 0.1545085
vt -0.03250122 -0.01004028
vt -0.4674988 -0.01004028
vt -0.05379105 0.124382
vt 0.0954915 0.2938926
vt -0.1155777 0.2456436
vt 0.2061073 0.4045085
vt -0.2118149 0.3418808
vt 0.3454915 0.4755283
vt -0.3330803 0.4036636
vt 0.5 0.5
vt -0.4674988 0.4249573
vt 0.6545085 0.4755283
vt -0.6019211 0.4036636
vt 0.7938926 0.4045085
vt -0.7231865 0.3418808
vt 0.9045085 0.2938926
vt -0.8194199 0.2456436
vt 0.9755282 0.1545085
vt -0.8812103 0.124382
vt 1 -4.371139E-08
vt -0.9025002 -0.01004028
vt 0.9755282 -0.1545085
vt -0.8812103 -0.1444702
vt 0.9045085 -0.2938926
vt -0.8194199 -0.2657318
vt 0.7938927 -0.4045084
vt -0.7231865 -0.361969
vt 0.6545085 -0.4755282
vt -0.6019211 -0.4237518
vt 0.5 -0.5
vt -0.4674988 -0.4450455
vt 0.3454914 -0.4755282
vt -0.3330803 -0.4237518
vt 0.2061075 -0.4045086
vt -0.2118149 -0.361969
vt 0.09549153 -0.2938927
vt -0.1155777 -0.2657318
vt 0.02447173 -0.1545085
vt -0.05379105 -0.1444702
vt -0.09612767 -0.2931381
vt -0.2066771 -0.4038205
vt -0.1162598 -0.2649603
vt -0.2124391 -0.3612554
vt -0.02541409 -0.1539965
vt -0.05478012 -0.1439551
vt -0.1164939 -0.2652538
vt -0.2064465 -0.4036408
vt -0.3458059 -0.4747087
vt -0.3334284 -0.4228972
vt -0.5000994 -0.4991354
vt -0.4676075 -0.4441499
vt -0.4999069 -0.4991878
vt -0.6544139 -0.4747066
vt -0.4673986 -0.444212
vt -0.6018196 -0.4229101
vt -0.7936289 -0.403807
vt -0.6016504 -0.4230548
vt -0.7229086 -0.361258
vt -0.9041141 -0.2933673
vt -0.81901 -0.2652034
vt -0.9040437 -0.2935796
vt -0.9750534 -0.1541904
vt -0.8189389 -0.2654178
vt -0.8807206 -0.1441518
vt -0.9994987 0.0001034803
vt -0.9019845 -0.009936797
vt -0.9995195 -9.874532E-05
vt -0.9750512 0.1544104
vt -0.9020053 -0.01013902
vt -0.8807185 0.1242838
vt -0.9040979 0.2936208
vt -0.8189936 0.2453704
vt -0.9041862 0.2934758
vt -0.793579 0.4041004
vt -0.8190832 0.245223
vt -0.7228574 0.3414678
vt -0.79369 0.4039945
vt -0.6543111 0.4750245
vt -0.6017112 0.4031495
vt -0.6544387 0.4749621
vt -0.4999311 0.4994391
vt -0.4674245 0.4243801
vt -0.5000722 0.4994232
vt -0.3455649 0.4749444
vt -0.4675776 0.4243589
vt -0.3331601 0.4030592
vt -0.2063502 0.4039345
vt -0.212079 0.3412864
vt -0.2065354 0.4040213
vt -0.09595269 0.2933722
vt -0.1160739 0.2451088
vt -0.09617354 0.2935261
vt -0.0252036 0.1541165
vt -0.05456505 0.1239846
vt -0.0009809905 -0.0001551819
vt -0.05478941 0.1242306
vt -0.03352521 -0.01019577
vt -0.001081626 0.0001710557
vt -0.02551754 -0.1543431
vt -0.03362582 -0.009869596
vt -0.05488449 -0.1443045
vt 0.2696265 0.02167416
vt 0.4057265 0.02167416
vt 0.2696265 0.01308428
vt 0.4057265 0.01308428
vt 0.1531444 0.02167416
vt 0.2892399 0.02167416
vt 0.1531444 0.01308428
vt 0.2892399 0.01308428
vt 0.3530515 0.02167416
vt 0.4891486 0.02167416
vt 0.3530515 0.01308428
vt 0.4891486 0.01308428
vt 0.3952791 0.02167416
vt 0.5313737 0.02167416
vt 0.3952791 0.01308428
vt 0.5313737 0.01308428
vt 0.3921106 0.02167416
vt 0.528209 0.02167416
vt 0.3921106 0.01308428
vt 0.528209 0.01308428
vt 0.3439575 0.02167416
vt 0.4800546 0.02167416
vt 0.3439575 0.01308428
vt 0.4800546 0.01308428
vt 0.2554041 0.02167416
vt 0.3915014 0.02167416
vt 0.2554041 0.01308428
vt 0.3915014 0.01308428
vt 0.1352657 0.02167416
vt 0.2713628 0.02167416
vt 0.1352657 0.01308428
vt 0.2713628 0.01308428
vt -0.004851433 0.02167416
vt 0.1312539 0.02167416
vt -0.004851433 0.01308428
vt 0.1312539 0.01308428
vt -0.1510951 0.02167416
vt -0.01499728 0.02167416
vt -0.1510951 0.01308428
vt -0.01499728 0.01308428
vt -0.2892613 0.02167416
vt -0.1531641 0.02167416
vt -0.2892613 0.01308428
vt -0.1531641 0.01308428
vt -0.4057061 0.02167416
vt -0.2696089 0.02167416
vt -0.4057061 0.01308428
vt -0.2696089 0.01308428
vt -0.4891739 0.02167416
vt -0.3530768 0.02167416
vt -0.4891739 0.01308428
vt -0.3530768 0.01308428
vt -0.5313519 0.02167416
vt -0.3952535 0.02167416
vt -0.5313519 0.01308428
vt -0.3952535 0.01308428
vt -0.5282307 0.02167416
vt -0.3921361 0.02167416
vt -0.5282307 0.01308428
vt -0.3921361 0.01308428
vt -0.4800294 0.02167416
vt -0.3439323 0.02167416
vt -0.4800294 0.01308428
vt -0.3439323 0.01308428
vt -0.391522 0.02167416
vt -0.255422 0.02167416
vt -0.391522 0.01308428
vt -0.255422 0.01308428
vt -0.2713412 0.02167416
vt -0.1352458 0.02167416
vt -0.2713412 0.01308428
vt -0.1352458 0.01308428
vt -0.1312653 0.02167416
vt 0.0048325 0.02167416
vt -0.1312653 0.01308428
vt 0.0048325 0.01308428
vt 0.01500059 0.02167416
vt 0.1511059 0.02167416
vt 0.01500059 0.01308428
vt 0.1511059 0.01308428

vn -1 0 -1.508691E-08
vn -0.9510565 0 0.309017
vn -0.809017 0 0.5877852
vn -0.5877852 0 0.809017
vn -0.3090169 0 0.9510565
vn 0 0 1
vn 0.3090169 0 0.9510565
vn 0.5877852 0 0.809017
vn 0.809017 0 0.5877852
vn 0.9510565 0 0.3090169
vn 1 0 -4.526072E-08
vn 0.9510565 0 -0.309017
vn 0.8090171 0 -0.5877851
vn 0.5877854 0 -0.8090169
vn 0.3090171 0 -0.9510565
vn 7.543453E-09 0 -1
vn -0.309017 0 -0.9510565
vn -0.5877852 0 -0.8090171
vn -0.8090169 0 -0.5877854
vn -0.9510565 0 -0.309017
vn 0 -1 0
vn 0 1 0
vn -0.03465799 0.9987981 -0.034658
vn -0.04854698 0.9985146 -0.02473592
vn -0.01875339 0.9991465 -0.0368056
vn -0.005320286 0.9994215 -0.03359095
vn 0.004410072 0.9996026 -0.02784408
vn 0.01085364 0.9997142 -0.02130146
vn 0.01478018 0.9997815 -0.01478017
vn 0.0168333 0.9998215 -0.008576994
vn 0.01745317 0.9998438 -0.002764313
vn 0.01689283 0.9998537 0.002675563
vn 0.01526342 0.9998533 0.0077771
vn 0.01255379 0.9998424 0.01255379
vn 0.008645046 0.9998187 0.01696686
vn 0.003305761 0.9997767 0.02087176
vn -0.003792578 0.9997061 0.0239454
vn -0.01300984 0.9995893 0.02553324
vn -0.02448449 0.9994003 0.02448448
vn -0.03744496 0.9991165 0.01907916
vn -0.04904805 0.9987662 0.007768443
vn -0.05407931 0.9984999 -0.008565319
vn 0.7071068 0 0.7071068
vn 0.8910042 0 0.4539951
vn 0.4539615 0 0.8910213
vn 0.156462 0 0.987684
vn -0.1564577 0 0.9876846
vn -0.4539615 0 0.8910213
vn -0.7071208 0 0.7070928
vn -0.8909929 0 0.4540173
vn -0.9876904 0 0.1564217
vn -0.987689 0 -0.1564303
vn -0.8909929 0 -0.4540173
vn -0.7071208 0 -0.7070928
vn -0.4539615 0 -0.8910213
vn -0.1564577 0 -0.9876846
vn 0.156462 0 -0.987684
vn 0.4539615 0 -0.8910213
vn 0.7071068 0 -0.7071068
vn 0.8910042 0 -0.4539951
vn 0.987689 0 -0.1564303
vn 0.9876904 0 0.1564217

g Cylinder
usemtl ShinyWhite
f 1/1/21 41/39/21 3/40/21
f 3/40/21 41/39/21 5/44/21
f 5/44/21 41/39/21 7/46/21
f 7/46/21 41/39/21 9/48/21
f 9/48/21 41/39/21 11/50/21
f 11/50/21 41/39/21 13/52/21
f 13/52/21 41/39/21 15/54/21
f 15/54/21 41/39/21 17/56/21
f 17/56/21 41/39/21 19/58/21
f 19/58/21 41/39/21 21/60/21
f 21/60/21 41/39/21 23/62/21
f 23/62/21 41/39/21 25/64/21
f 25/64/21 41/39/21 27/66/21
f 27/66/21 41/39/21 29/68/21
f 29/68/21 41/39/21 31/70/21
f 31/70/21 41/39/21 33/72/21
f 33/72/21 41/39/21 35/74/21
f 35/74/21 41/39/21 37/76/21
f 37/76/21 41/39/21 39/78/21
f 39/78/21 41/39/21 1/1/21
f 44/43/22 43/42/22 42/41/22
f 45/45/22 43/42/22 44/43/22
f 46/47/22 43/42/22 45/45/22
f 47/49/22 43/42/22 46/47/22
f 48/51/22 43/42/22 47/49/22
f 49/53/22 43/42/22 48/51/22
f 50/55/22 43/42/22 49/53/22
f 51/57/22 43/42/22 50/55/22
f 52/59/22 43/42/22 51/57/22
f 53/61/22 43/42/22 52/59/22
f 54/63/22 43/42/22 53/61/22
f 55/65/22 43/42/22 54/63/22
f 56/67/22 43/42/22 55/65/22
f 57/69/22 43/42/22 56/67/22
f 58/71/22 43/42/22 57/69/22
f 59/73/22 43/42/22 58/71/22
f 60/75/22 43/42/22 59/73/22
f 61/77/22 43/42/22 60/75/22
f 62/79/22 43/42/22 61/77/22
f 42/41/22 43/42/22 62/79/22
f 4/4/2 2/2/1 1/1/1
f 1/1/1 3/3/2 4/4/2
f 6/8/3 4/6/2 3/5/2
f 3/5/2 5/7/3 6/8/3
f 8/12/4 6/10/3 5/9/3
f 5/9/3 7/11/4 8/12/4
f 10/16/5 8/14/4 7/13/4
f 7/13/4 9/15/5 10/16/5
f 12/20/6 10/18/5 9/17/5
f 9/17/5 11/19/6 12/20/6
f 14/20/7 12/18/6 11/17/6
f 11/17/6 13/19/7 14/20/7
f 16/16/8 14/14/7 13/13/7
f 13/13/7 15/15/8 16/16/8
f 18/12/9 16/10/8 15/9/8
f 15/9/8 17/11/9 18/12/9
f 20/8/10 18/6/9 17/5/9
f 17/5/9 19/7/10 20/8/10
f 22/4/11 20/2/10 19/1/10
f 19/1/10 21/3/11 22/4/11
f 24/2/12 22/22/11 21/21/11
f 21/21/11 23/1/12 24/2/12
f 26/26/13 24/24/12 23/23/12
f 23/23/12 25/25/13 26/26/13
f 28/30/14 26/28/13 25/27/13
f 25/27/13 27/29/14 28/30/14
f 30/34/15 28/32/14 27/31/14
f 27/31/14 29/33/15 30/34/15
f 32/38/16 30/36/15 29/35/15
f 29/35/15 31/37/16 32/38/16
f 34/38/17 32/36/16 31/35/16
f 31/35/16 33/37/17 34/38/17
f 36/34/18 34/32/17 33/31/17
f 33/31/17 35/33/18 36/34/18
f 38/30/19 36/28/18 35/27/18
f 35/27/18 37/29/19 38/30/19
f 40/26/20 38/24/19 37/23/19
f 37/23/19 39/25/20 40/26/20
f 2/2/1 40/22/20 39/21/20
f 39/21/20 1/1/1 2/2/1
f 64/83/23 36/81/23 38/80/23
f 38/80/23 63/82/23 64/83/23
f 63/86/24 38/80/24 40/84/24
f 40/84/24 65/85/24 63/86/24
f 66/89/25 34/88/25 36/87/25
f 36/87/25 64/83/25 66/89/25
f 67/91/26 32/90/26 34/88/26
f 34/88/26 66/89/26 67/91/26
f 68/95/27 30/93/27 32/92/27
f 32/92/27 67/94/27 68/95/27
f 69/98/28 28/96/28 30/93/28
f 30/93/28 68/97/28 69/98/28
f 70/100/29 26/99/29 28/96/29
f 28/96/29 69/98/29 70/100/29
f 71/104/30 24/102/30 26/101/30
f 26/101/30 70/103/30 71/104/30
f 72/106/31 22/105/31 24/102/31
f 24/102/31 71/104/31 72/106/31
f 73/110/32 20/108/32 22/107/32
f 22/107/32 72/109/32 73/110/32
f 74/112/33 18/111/33 20/108/33
f 20/108/33 73/110/33 74/112/33
f 75/116/34 16/114/34 18/113/34
f 18/113/34 74/115/34 75/116/34
f 76/119/35 14/118/35 16/117/35
f 16/117/35 75/116/35 76/119/35
f 77/122/36 12/121/36 14/120/36
f 14/120/36 76/119/36 77/122/36
f 78/126/37 10/124/37 12/123/37
f 12/123/37 77/125/37 78/126/37
f 79/128/38 8/127/38 10/124/38
f 10/124/38 78/126/38 79/128/38
f 80/131/39 6/130/39 8/129/39
f 8/129/39 79/128/39 80/131/39
f 81/134/40 4/133/40 6/132/40
f 6/132/40 80/131/40 81/134/40
f 82/137/41 2/135/41 4/133/41
f 4/133/41 81/136/41 82/137/41
f 65/141/42 40/139/42 2/138/42
f 2/138/42 82/140/42 65/141/42
f 60/145/43 64/143/43 63/142/43
f 63/142/43 61/144/43 60/145/43
f 61/149/44 63/147/44 65/146/44
f 65/146/44 62/148/44 61/149/44
f 59/153/45 66/151/45 64/150/45
f 64/150/45 60/152/45 59/153/45
f 58/157/46 67/155/46 66/154/46
f 66/154/46 59/156/46 58/157/46
f 57/161/47 68/159/47 67/158/47
f 67/158/47 58/160/47 57/161/47
f 56/165/48 69/163/48 68/162/48
f 68/162/48 57/164/48 56/165/48
f 55/169/49 70/167/49 69/166/49
f 69/166/49 56/168/49 55/169/49
f 54/173/50 71/171/50 70/170/50
f 70/170/50 55/172/50 54/173/50
f 53/177/51 72/175/51 71/174/51
f 71/174/51 54/176/51 53/177/51
f 52/181/52 73/179/52 72/178/52
f 72/178/52 53/180/52 52/181/52
f 51/185/53 74/183/53 73/182/53
f 73/182/53 52/184/53 51/185/53
f 50/189/54 75/187/54 74/186/54
f 74/186/54 51/188/54 50/189/54
f 49/193/55 76/191/55 75/190/55
f 75/190/55 50/192/55 49/193/55
f 48/197/56 77/195/56 76/194/56
f 76/194/56 49/196/56 48/197/56
f 47/201/57 78/199/57 77/198/57
f 77/198/57 48/200/57 47/201/57
f 46/205/58 79/203/58 78/202/58
f 78/202/58 47/204/58 46/205/58
f 45/209/59 80/207/59 79/206/59
f 79/206/59 46/208/59 45/209/59
f 44/213/60 81/211/60 80/210/60
f 80/210/60 45/212/60 44/213/60
f 42/217/61 82/215/61 81/214/61
f 81/214/61 44/216/61 42/217/61
f 62/221/62 65/219/62 82/218/62
f 82/218/62 42/220/62 62/221/62

